<svg width="18" height="18" viewBox="0 0 18 18" fill="none" xmlns="http://www.w3.org/2000/svg">
<rect width="18" height="18" rx="3" fill="#387CFF"/>
<g clip-path="url(#clip0_1_28)">
<path d="M6.02 6.886C4.79 7.1645 4.175 7.3035 4.0285 7.774C3.8825 8.244 4.3015 8.7345 5.14 9.715L5.357 9.9685C5.595 10.247 5.7145 10.3865 5.768 10.5585C5.8215 10.731 5.8035 10.917 5.7675 11.2885L5.7345 11.627C5.608 12.9355 5.5445 13.5895 5.9275 13.88C6.3105 14.171 6.8865 13.9055 8.0375 13.3755L8.336 13.2385C8.663 13.0875 8.8265 13.0125 9 13.0125C9.1735 13.0125 9.337 13.0875 9.6645 13.2385L9.962 13.3755C11.1135 13.9055 11.6895 14.1705 12.072 13.8805C12.4555 13.5895 12.392 12.9355 12.2655 11.627M12.86 9.715C13.6985 8.735 14.1175 8.2445 13.9715 7.774C13.825 7.3035 13.21 7.164 11.98 6.886L11.662 6.814C11.3125 6.735 11.138 6.6955 10.9975 6.589C10.8575 6.4825 10.7675 6.321 10.5875 5.998L10.4235 5.704C9.79 4.568 9.4735 4 9 4C8.5265 4 8.21 4.568 7.5765 5.704" stroke="white" stroke-width="1.5" stroke-linecap="round"/>
</g>
<defs>
<clipPath id="clip0_1_28">
<rect width="12" height="12" fill="white" transform="translate(3 3)"/>
</clipPath>
</defs>
</svg>
