<svg width="28" height="28" viewBox="0 0 28 28" fill="none" xmlns="http://www.w3.org/2000/svg">
<rect width="28" height="28" rx="3" fill="#3F79D3"/>
<path d="M15.25 18.0625C15.25 18.3097 15.1767 18.5514 15.0393 18.757C14.902 18.9625 14.7068 19.1227 14.4784 19.2174C14.25 19.312 13.9986 19.3367 13.7561 19.2885C13.5137 19.2403 13.2909 19.1212 13.1161 18.9464C12.9413 18.7716 12.8223 18.5488 12.774 18.3064C12.7258 18.0639 12.7505 17.8126 12.8452 17.5841C12.9398 17.3557 13.1 17.1605 13.3055 17.0232C13.5111 16.8858 13.7528 16.8125 14 16.8125C14.3315 16.8125 14.6495 16.9442 14.8839 17.1786C15.1183 17.413 15.25 17.731 15.25 18.0625ZM22.4375 14C22.4375 15.6688 21.9427 17.3001 21.0155 18.6876C20.0884 20.0752 18.7706 21.1566 17.2289 21.7952C15.6871 22.4338 13.9906 22.6009 12.3539 22.2754C10.7172 21.9498 9.2138 21.1462 8.03379 19.9662C6.85379 18.7862 6.05019 17.2828 5.72463 15.6461C5.39907 14.0094 5.56616 12.3129 6.20477 10.7711C6.84338 9.22936 7.92484 7.9116 9.31238 6.98448C10.6999 6.05735 12.3312 5.5625 14 5.5625C16.237 5.56498 18.3817 6.45473 19.9635 8.03653C21.5453 9.61833 22.435 11.763 22.4375 14ZM20.5625 14C20.5625 12.7021 20.1776 11.4333 19.4565 10.3541C18.7354 9.27487 17.7105 8.43374 16.5114 7.93704C15.3122 7.44034 13.9927 7.31038 12.7197 7.5636C11.4467 7.81681 10.2774 8.44183 9.35962 9.35961C8.44183 10.2774 7.81682 11.4467 7.5636 12.7197C7.31038 13.9927 7.44034 15.3122 7.93704 16.5114C8.43374 17.7105 9.27488 18.7354 10.3541 19.4565C11.4333 20.1776 12.7021 20.5625 14 20.5625C15.7399 20.5606 17.408 19.8686 18.6383 18.6383C19.8686 17.408 20.5606 15.7399 20.5625 14ZM14 9C12.1047 9 10.5625 10.4016 10.5625 12.125V12.4375C10.5625 12.6861 10.6613 12.9246 10.8371 13.1004C11.0129 13.2762 11.2514 13.375 11.5 13.375C11.7486 13.375 11.9871 13.2762 12.1629 13.1004C12.3387 12.9246 12.4375 12.6861 12.4375 12.4375V12.125C12.4375 11.4359 13.1406 10.875 14 10.875C14.8594 10.875 15.5625 11.4359 15.5625 12.125C15.5625 12.8141 14.8594 13.375 14 13.375C13.7514 13.375 13.5129 13.4738 13.3371 13.6496C13.1613 13.8254 13.0625 14.0639 13.0625 14.3125V14.9375C13.0619 15.1691 13.1471 15.3927 13.3017 15.5653C13.4562 15.7378 13.6692 15.847 13.8994 15.8719C14.1297 15.8967 14.3611 15.8354 14.5488 15.6998C14.7366 15.5642 14.8676 15.3639 14.9164 15.1375C16.368 14.7719 17.4375 13.5602 17.4375 12.125C17.4375 10.4016 15.8953 9 14 9Z" fill="white"/>
</svg>
